<svg class="svg-standalone-icon" width="100%"
  viewBox="217.90079988739296 114.99999999999997 114.19840022521413 114.19841164505121">
  <g data-paper-data="{&quot;fillRule&quot;:&quot;nonzero&quot;,&quot;fillRuleOriginal&quot;:&quot;evenodd&quot;,&quot;isIcon&quot;:true,&quot;iconStyle&quot;:&quot;standalone&quot;,&quot;selectedEffects&quot;:{&quot;container&quot;:&quot;square_simple_filledplus_rounded_upright&quot;,&quot;transformation&quot;:&quot;&quot;,&quot;pattern&quot;:&quot;&quot;},&quot;bounds&quot;:{&quot;x&quot;:217.90079988739296,&quot;y&quot;:114.99999999999997,&quot;width&quot;:114.19840022521413,&quot;height&quot;:114.19841164505121},&quot;widthRatioIconToContainer&quot;:0.7959526824369821,&quot;heightRatioIconToContainer&quot;:0.5650244031940028,&quot;relativeBoundsIconToContainer&quot;:{&quot;top&quot;:-0.000006938872430070198,&quot;left&quot;:6.993313472953275e-8},&quot;iconType&quot;:&quot;icon&quot;,&quot;rawIconId&quot;:&quot;1340339&quot;,&quot;isDetailed&quot;:false,&quot;suitableAsStandaloneIcon&quot;:true}"
    fill-rule="nonzero">
    <path
      d="M231.4253,222.83602c-3.9555,0 -7.16207,-3.20657 -7.16207,-7.16207v-87.14944c0,-3.9555 3.20657,-7.16207 7.16207,-7.16207h87.14944c3.9555,0 7.16207,3.20657 7.16207,7.16207v87.14944c0,3.9555 -3.20657,7.16207 -7.16207,7.16207zM261.81492,204.36086l8.83836,-8.83836l-23.42335,-23.42335l23.42335,-23.42407l-8.83908,-8.83908l-32.26243,32.26315zM302.76939,172.09915l-23.42335,23.42407l8.83908,8.83764l32.26315,-32.26171l-32.26315,-32.26315l-8.83908,8.83908zM332.0992,215.67403l-0.00048,0.11197c0,0.01067 -0.00016,0.02125 -0.00048,0.03175l-0.01552,0.55745c-0.00048,0.01846 -0.00135,0.03685 -0.00263,0.05515l-0.0382,0.55625c-0.00143,0.01926 -0.00318,0.03844 -0.00525,0.05753l-0.06231,0.55411c-0.00223,0.01973 -0.00493,0.03947 -0.00812,0.05921l-0.0869,0.55076c-0.00318,0.02037 -0.00685,0.04067 -0.01098,0.06088l-0.11245,0.54623c-0.0043,0.02069 -0.00907,0.04138 -0.01433,0.06207l-0.13799,0.54002c-0.00541,0.02101 -0.0113,0.04186 -0.01767,0.06255l-0.16425,0.53286c-0.00637,0.02101 -0.01329,0.04178 -0.02077,0.06231l-0.19003,0.52426c-0.00764,0.02069 -0.01576,0.04122 -0.02435,0.06159l-0.21558,0.514c-0.00859,0.02037 -0.01767,0.04051 -0.02721,0.0604l-0.24088,0.50302c-0.00955,0.01973 -0.0195,0.03923 -0.02984,0.05849l-0.26548,0.49036c-0.01019,0.01894 -0.02085,0.03764 -0.03199,0.05611l-0.28863,0.477c-0.01098,0.01799 -0.02236,0.03573 -0.03414,0.05324l-0.31084,0.46291c-0.01146,0.01703 -0.02332,0.03382 -0.03557,0.05037l-0.33184,0.44787c-0.01178,0.01607 -0.02395,0.03175 -0.03653,0.04703l-0.35142,0.43307c-0.01194,0.0148 -0.02427,0.02929 -0.03701,0.04345l-0.36956,0.41755c-0.01209,0.01369 -0.02443,0.02713 -0.03701,0.04035l-0.38652,0.40203c-0.00732,0.00764 -0.01472,0.01512 -0.0222,0.02244l-0.07592,0.07544c-0.00748,0.00748 -0.01504,0.01488 -0.02268,0.0222l-0.40514,0.38317c-0.01337,0.01257 -0.02698,0.02499 -0.04083,0.03724l-0.42042,0.36622c-0.01449,0.01257 -0.02929,0.02483 -0.04441,0.03677l-0.4357,0.34784c-0.0156,0.01241 -0.03151,0.02451 -0.04775,0.03629l-0.45097,0.32802c-0.01671,0.01209 -0.03366,0.02379 -0.05085,0.03509l-0.46554,0.30678c-0.01767,0.01162 -0.03565,0.02284 -0.05395,0.03366l-0.47962,0.28434c-0.01862,0.01098 -0.03748,0.02157 -0.05658,0.03175l-0.49299,0.2607c-0.01942,0.01019 -0.03899,0.01997 -0.05873,0.02937l-0.50516,0.23611c-0.02005,0.00939 -0.04027,0.0183 -0.06064,0.02674l-0.51615,0.2108c-0.02037,0.00827 -0.04099,0.01615 -0.06183,0.02363l-0.52593,0.18502c-0.02069,0.00732 -0.04154,0.01409 -0.06255,0.02029l-0.53429,0.15924c-0.02069,0.00605 -0.04154,0.0117 -0.06255,0.01695l-0.54121,0.13298c-0.02053,0.00509 -0.04114,0.00971 -0.06183,0.01385l-0.54718,0.10743c-0.02005,0.00398 -0.04027,0.00748 -0.06064,0.01051l-0.55148,0.08213c-0.01957,0.00287 -0.03923,0.00533 -0.05897,0.0074l-0.55458,0.05753c-0.01894,0.00207 -0.03796,0.00366 -0.05706,0.00477l-0.55649,0.0339c-0.0183,0.00111 -0.03661,0.00183 -0.05491,0.00215l-0.55745,0.01098l-0.19099,0.00048h-86.98503l-0.11206,-0.00048c-0.01063,0 -0.02126,-0.00016 -0.0319,-0.00048l-0.55735,-0.01552c-0.01843,-0.00048 -0.03683,-0.00135 -0.05522,-0.00263l-0.55623,-0.0382c-0.0192,-0.00143 -0.03834,-0.00318 -0.05744,-0.00525l-0.55408,-0.06231c-0.01985,-0.00223 -0.03964,-0.00493 -0.05937,-0.00812l-0.55074,-0.0869c-0.02039,-0.00318 -0.04069,-0.00685 -0.0609,-0.01098l-0.54611,-0.11245c-0.02077,-0.0043 -0.04143,-0.00907 -0.06198,-0.01433l-0.54016,-0.13799c-0.02098,-0.00541 -0.04181,-0.0113 -0.0625,-0.01767l-0.53283,-0.16425c-0.02096,-0.00637 -0.04176,-0.01329 -0.06238,-0.02077l-0.52412,-0.19027c-0.02077,-0.00748 -0.04134,-0.01552 -0.06171,-0.02411l-0.51407,-0.21582c-0.02037,-0.00843 -0.04051,-0.01743 -0.06042,-0.02698l-0.5028,-0.24112c-0.01973,-0.00939 -0.03923,-0.01926 -0.05849,-0.02961l-0.49036,-0.26548c-0.01899,-0.01019 -0.03771,-0.02085 -0.05617,-0.03199l-0.477,-0.28887c-0.01805,-0.01082 -0.03584,-0.02212 -0.05336,-0.0339l-0.46281,-0.31084c-0.01703,-0.01146 -0.0338,-0.02332 -0.0503,-0.03557l-0.44806,-0.33184c-0.01593,-0.01178 -0.0316,-0.02395 -0.04701,-0.03653l-0.43287,-0.35142c-0.01482,-0.01194 -0.02937,-0.02427 -0.04366,-0.03701l-0.41747,-0.36956c-0.01369,-0.01209 -0.02712,-0.02443 -0.0403,-0.03701l-0.40201,-0.38652c-0.00759,-0.00732 -0.0151,-0.01472 -0.02251,-0.0222l-0.07534,-0.07592c-0.00748,-0.00748 -0.01487,-0.01504 -0.02218,-0.02268l-0.38324,-0.40514c-0.01267,-0.01337 -0.02506,-0.02698 -0.03717,-0.04083l-0.36622,-0.42042c-0.01262,-0.01449 -0.02493,-0.02929 -0.03693,-0.04441l-0.34777,-0.4357c-0.01246,-0.0156 -0.02456,-0.03151 -0.03631,-0.04775l-0.3279,-0.45097c-0.01214,-0.01671 -0.0239,-0.03366 -0.03526,-0.05085l-0.30673,-0.46554c-0.01167,-0.01767 -0.02291,-0.03565 -0.03373,-0.05395l-0.28426,-0.47962c-0.01104,-0.01862 -0.02163,-0.03748 -0.03175,-0.05658l-0.2607,-0.49299c-0.01027,-0.01926 -0.02005,-0.03883 -0.02934,-0.05873l-0.23618,-0.50516c-0.00936,-0.02005 -0.01821,-0.04027 -0.02657,-0.06064l-0.21092,-0.51615c-0.00835,-0.02037 -0.01619,-0.04099 -0.02351,-0.06183l-0.18516,-0.52593c-0.00727,-0.02069 -0.01403,-0.04154 -0.02029,-0.06255l-0.15914,-0.53429c-0.00616,-0.02069 -0.01182,-0.04154 -0.01698,-0.06255l-0.13317,-0.54121c-0.00503,-0.02053 -0.00958,-0.04114 -0.01366,-0.06183l-0.10743,-0.54718c-0.00395,-0.02005 -0.00743,-0.04027 -0.01045,-0.06064l-0.08219,-0.55148c-0.00293,-0.01957 -0.00542,-0.03923 -0.00747,-0.05897l-0.05761,-0.55458c-0.00198,-0.01894 -0.00353,-0.03796 -0.00468,-0.05706l-0.03388,-0.55649c-0.00111,-0.0183 -0.00186,-0.03661 -0.00222,-0.05491l-0.01105,-0.55745l-0.00026,-0.74844v-86.42758l0.00041,-0.11211c0.00005,-0.01063 0.00022,-0.02126 0.0005,-0.03187l0.01538,-0.55735c0.00051,-0.01843 0.00139,-0.03683 0.00265,-0.05522l0.03836,-0.55623c0.00132,-0.0192 0.00305,-0.03835 0.0052,-0.05746l0.06226,-0.55406c0.00223,-0.01986 0.0049,-0.03966 0.00802,-0.05937l0.087,-0.55074c0.00321,-0.02039 0.0069,-0.04069 0.01105,-0.0609l0.11235,-0.54611c0.00427,-0.02077 0.00902,-0.04143 0.01427,-0.06198l0.13816,-0.54016c0.00535,-0.02098 0.01121,-0.04181 0.01759,-0.0625l0.16415,-0.53283c0.00645,-0.02096 0.01342,-0.04176 0.02092,-0.06238l0.19011,-0.52414c0.00754,-0.02077 0.01559,-0.04134 0.02414,-0.06171l0.21582,-0.51407c0.00855,-0.02036 0.01759,-0.04049 0.02712,-0.0604l0.24096,-0.50278c0.00946,-0.01975 0.01939,-0.03926 0.02982,-0.05852l0.26531,-0.49038c0.01027,-0.01897 0.02098,-0.03769 0.03216,-0.05615l0.28868,-0.477c0.01093,-0.01805 0.02228,-0.03584 0.03404,-0.05336l0.31091,-0.46281c0.01144,-0.01704 0.02327,-0.03381 0.03548,-0.0503l0.33182,-0.44803c0.01181,-0.01595 0.02397,-0.03163 0.03648,-0.04703l0.35139,-0.43287c0.01203,-0.01482 0.02438,-0.02937 0.03703,-0.04366l0.36956,-0.41745c0.01213,-0.01369 0.02452,-0.02712 0.03717,-0.0403l0.38637,-0.40201c0.00729,-0.00759 0.01467,-0.0151 0.02215,-0.02254l0.07602,-0.07542c0.00754,-0.0075 0.01518,-0.0149 0.0229,-0.0222l0.40496,-0.38324c0.01338,-0.01267 0.02703,-0.02505 0.04095,-0.03715l0.42044,-0.36619c0.0145,-0.01264 0.02926,-0.02496 0.04429,-0.03695l0.43581,-0.34774c0.01563,-0.01246 0.03152,-0.02456 0.04768,-0.03631l0.45092,-0.32793c0.0167,-0.01213 0.03366,-0.02387 0.0509,-0.03524l0.46558,-0.30673c0.01771,-0.01167 0.03569,-0.0229 0.05393,-0.03371l0.47962,-0.28429c0.01862,-0.01103 0.0375,-0.02161 0.05665,-0.03173l0.49282,-0.2607c0.0194,-0.01027 0.03904,-0.02005 0.05892,-0.02934l0.50505,-0.23618c0.02002,-0.00936 0.04026,-0.01821 0.06071,-0.02657l0.5161,-0.2109c0.02044,-0.00835 0.04107,-0.0162 0.06191,-0.02354l0.52589,-0.18514c0.02066,-0.00727 0.04148,-0.01403 0.06248,-0.02029l0.53434,-0.15914c0.02068,-0.00616 0.04149,-0.01182 0.06246,-0.01698l0.5414,-0.13314c0.0205,-0.00505 0.0411,-0.0096 0.06181,-0.01366l0.54708,-0.10743c0.02015,-0.00396 0.04037,-0.00746 0.06066,-0.01048l0.55146,-0.08217c0.01962,-0.00293 0.0393,-0.00542 0.05904,-0.00747l0.55456,-0.05761c0.01899,-0.00198 0.03801,-0.00354 0.05706,-0.0047l0.55652,-0.03385c0.01824,-0.00111 0.03649,-0.00186 0.05476,-0.00222l0.55747,-0.01105l1.30617,-0.00026h85.86992l0.11197,0.00041c0.01067,0.00005 0.02133,0.00022 0.03199,0.0005l0.55721,0.01535c0.01846,0.00051 0.03685,0.0014 0.05515,0.00267l0.55625,0.03834c0.01926,0.00134 0.03844,0.00308 0.05753,0.00523l0.55411,0.06226c0.01989,0.00223 0.03971,0.0049 0.05945,0.00802l0.55052,0.08697c0.02037,0.00321 0.04075,0.00691 0.06112,0.01108l0.54599,0.11233c0.02085,0.00428 0.04154,0.00905 0.06207,0.0143l0.54002,0.13813c0.02101,0.00536 0.04186,0.01123 0.06255,0.01759l0.53286,0.16415c0.02101,0.00646 0.04178,0.01344 0.06231,0.02092l0.52426,0.19013c0.02069,0.00753 0.04122,0.01557 0.06159,0.02411l0.51424,0.21582c0.02021,0.00855 0.04035,0.01759 0.0604,0.02712l0.50278,0.24096c0.01973,0.00947 0.03923,0.01941 0.05849,0.02982l0.49036,0.26533c0.01894,0.01027 0.03764,0.02098 0.05611,0.03216l0.477,0.28868c0.01799,0.01092 0.03573,0.02227 0.05324,0.03404l0.46291,0.31088c0.01703,0.01144 0.03382,0.02328 0.05037,0.0355l0.44787,0.33182c0.01607,0.01181 0.03175,0.02397 0.04703,0.03648l0.43307,0.35139c0.0148,0.01203 0.02937,0.02438 0.04369,0.03703l0.41731,0.36959c0.01369,0.01211 0.02713,0.0245 0.04035,0.03717l0.40203,0.38634c0.00764,0.00729 0.01512,0.01467 0.02244,0.02215l0.07544,0.07596c0.00748,0.00756 0.01488,0.01521 0.0222,0.02294l0.38317,0.40496c0.01273,0.01338 0.02515,0.02703 0.03724,0.04092l0.36622,0.42044c0.01257,0.0145 0.02491,0.02927 0.03701,0.04431l0.3476,0.43581c0.01257,0.01561 0.02467,0.03151 0.03629,0.04768l0.32802,0.45092c0.01209,0.0167 0.02379,0.03365 0.03509,0.05088l0.30678,0.4656c0.01178,0.01771 0.02308,0.03569 0.0339,0.05393l0.2841,0.47964c0.01114,0.01862 0.02173,0.0375 0.03175,0.05663l0.2607,0.49285c0.01035,0.01939 0.02013,0.03902 0.02937,0.0589l0.23611,0.50505c0.00939,0.02002 0.0183,0.04026 0.02674,0.06071l0.2108,0.51613c0.00843,0.02042 0.01631,0.04104 0.02363,0.06186l0.18502,0.52591c0.00732,0.02066 0.01409,0.04148 0.02029,0.06248l0.15924,0.53436c0.00605,0.02068 0.0117,0.04148 0.01695,0.06243l0.13321,0.5414c0.00493,0.0205 0.00947,0.0411 0.01361,0.06181l0.10743,0.54711c0.00398,0.02013 0.00748,0.04035 0.01051,0.06064l0.08213,0.55146c0.00287,0.01962 0.00533,0.0393 0.0074,0.05902l0.05753,0.55458c0.00207,0.01899 0.00366,0.03801 0.00477,0.05706l0.0339,0.55652c0.00111,0.01825 0.00183,0.03652 0.00215,0.05479l0.01098,0.55745l0.00048,1.86377zM329.42011,130.36171l0.00024,-1.81063l-0.01051,-0.52999l-0.03032,-0.50065l-0.05157,-0.49648l-0.07329,-0.49161l-0.09549,-0.48581l-0.1177,-0.47919l-0.14062,-0.47188l-0.1633,-0.46367l-0.18574,-0.45486l-0.20818,-0.44508l-0.23014,-0.43517l-0.25139,-0.42418l-0.2724,-0.41337l-0.29197,-0.4015l-0.31107,-0.38988l-0.32922,-0.37783l-0.35309,-0.37329l-0.053,-0.05343l-0.371,-0.3565l-0.37553,-0.33237l-0.38747,-0.31458l-0.3994,-0.29587l-0.4111,-0.27605l-0.42208,-0.2555l-0.43307,-0.2343l-0.44333,-0.21248l-0.45288,-0.19013l-0.46196,-0.16759l-0.47055,-0.14491l-0.47771,-0.12221l-0.48464,-0.09967l-0.4906,-0.07747l-0.49562,-0.05569l-0.49991,-0.03447l-0.51376,-0.01415l-0.08595,-0.00034h-85.86992l-1.25303,-0.00026l-0.53002,0.01053l-0.50061,0.03046l-0.4965,0.05157l-0.49158,0.07327l-0.48583,0.0954l-0.47924,0.11786l-0.47184,0.14052l-0.4637,0.16325l-0.45477,0.18583l-0.4452,0.2082l-0.43505,0.23012l-0.42433,0.25151l-0.41318,0.27218l-0.40165,0.29209l-0.38983,0.31105l-0.37783,0.3291l-0.37329,0.35326l-0.0535,0.0531l-0.35638,0.37083l-0.33241,0.37548l-0.31463,0.38756l-0.29579,0.3994l-0.27607,0.41098l-0.25554,0.42223l-0.23427,0.43299l-0.21243,0.44331l-0.19017,0.453l-0.16757,0.462l-0.14491,0.47035l-0.12221,0.47787l-0.09967,0.48461l-0.0775,0.49056l-0.05569,0.49562l-0.03447,0.49986l-0.01415,0.51381l-0.00034,0.08607v86.42758l-0.00026,0.69544l0.01053,0.52999l0.03046,0.50063l0.05157,0.49633l0.07327,0.49156l0.0954,0.48583l0.11786,0.47938l0.14054,0.47174l0.16325,0.46386l0.18583,0.45456l0.2082,0.44524l0.23012,0.43498l0.25156,0.42447l0.27216,0.41302l0.29209,0.40179l0.31107,0.38986l0.32905,0.37768l0.35343,0.37338l0.05288,0.05348l0.37078,0.3562l0.37558,0.33256l0.38761,0.31466l0.39933,0.29579l0.41096,0.27598l0.42228,0.25568l0.43297,0.2342l0.44331,0.21248l0.45302,0.19003l0.46198,0.16759l0.47033,0.14491l0.47793,0.12223l0.48468,0.09979l0.4905,0.07735l0.4955,0.05563l0.50008,0.03462l0.51359,0.01409l0.08613,0.00024h86.98503l0.13799,0.00024l0.52999,-0.01051l0.50063,-0.03032l0.49633,-0.05157l0.49156,-0.07329l0.48583,-0.09549l0.47938,-0.1177l0.47174,-0.14062l0.46386,-0.1633l0.45456,-0.18574l0.44524,-0.20818l0.43522,-0.23014l0.42424,-0.25162l0.41325,-0.27216l0.40156,-0.29197l0.38986,-0.31131l0.37768,-0.32898l0.37362,-0.35333l0.053,-0.05276l0.35667,-0.371l0.33232,-0.37553l0.31466,-0.38747l0.29579,-0.3994l0.27598,-0.4111l0.25568,-0.42208l0.2342,-0.43307l0.21248,-0.44333l0.19003,-0.45288l0.16759,-0.4622l0.14491,-0.47031l0.12223,-0.47795l0.09979,-0.4844l0.07735,-0.4906l0.05563,-0.49562l0.03462,-0.49991l0.01409,-0.51376l0.00024,-0.08595z"
      data-paper-data="{&quot;isPathIcon&quot;:true}" style="fill: rgb(255, 255, 255);"></path>
  </g>
</svg>