<svg version="1.2" xmlns="http://www.w3.org/2000/svg" viewBox="0 0 116 116" width="116" height="116">
	<title>logo-min-svg</title>
	<style>
		.s0 { fill: #ffffff } 
	</style>
	<g id="Layer">
		<path id="Layer" fill-rule="evenodd" class="s0" d="m115.1 101.7v0.1q0 0 0 0v0.6q0 0 0 0l-0.1 0.6q0 0 0 0v0.6q0 0 0 0.1l-0.1 0.5q0 0 0 0.1l-0.1 0.5q-0.1 0-0.1 0.1l-0.1 0.5q0 0 0 0.1l-0.2 0.5q0 0 0 0.1l-0.2 0.5q0 0 0 0.1l-0.2 0.5q0 0-0.1 0l-0.2 0.5q0 0.1 0 0.1l-0.3 0.5q0 0 0 0l-0.3 0.5q0 0 0 0.1l-0.4 0.4q0 0.1 0 0.1l-0.3 0.4q0 0.1-0.1 0.1l-0.3 0.4q0 0-0.1 0.1l-0.3 0.4q0 0-0.1 0l-0.3 0.4q-0.1 0-0.1 0v0.1q-0.1 0-0.1 0l-0.4 0.4q0 0 0 0.1l-0.4 0.3q-0.1 0-0.1 0.1l-0.4 0.3q0 0-0.1 0l-0.4 0.4q0 0-0.1 0l-0.4 0.3q-0.1 0-0.1 0l-0.5 0.3q0 0.1 0 0.1l-0.5 0.2q0 0-0.1 0.1l-0.5 0.2q0 0 0 0l-0.5 0.2q-0.1 0-0.1 0.1l-0.5 0.1q-0.1 0-0.1 0.1l-0.5 0.1q-0.1 0-0.1 0l-0.5 0.2q-0.1 0-0.1 0l-0.5 0.1q-0.1 0-0.1 0l-0.6 0.1q0 0 0 0h-0.6q0 0 0 0.1h-0.6q0 0 0 0h-0.6-0.2-87-0.1q0 0 0 0h-0.6q0 0 0 0l-0.6-0.1q0 0 0 0h-0.6q0 0-0.1 0l-0.5-0.1q0 0-0.1 0l-0.5-0.1q0-0.1-0.1-0.1l-0.5-0.1q0 0-0.1 0l-0.5-0.2q0 0-0.1 0l-0.5-0.2q0 0-0.1 0l-0.5-0.2q0 0 0-0.1l-0.5-0.2q-0.1 0-0.1 0l-0.5-0.3q0 0 0 0l-0.5-0.3q0 0-0.1 0l-0.4-0.4q-0.1 0-0.1 0l-0.4-0.3q-0.1 0-0.1-0.1l-0.4-0.3q0 0-0.1-0.1l-0.4-0.3q0 0 0-0.1l-0.4-0.3q0-0.1 0-0.1h-0.1q0-0.1 0-0.1l-0.4-0.4q0 0-0.1 0l-0.3-0.4q0-0.1-0.1-0.1l-0.3-0.4q0 0 0-0.1l-0.4-0.4q0 0 0-0.1l-0.3-0.4q0-0.1-0.1-0.1l-0.2-0.5q-0.1 0-0.1 0l-0.2-0.5q0 0-0.1-0.1l-0.2-0.5q0 0 0 0l-0.2-0.6q0 0-0.1 0l-0.1-0.5q0-0.1-0.1-0.1l-0.1-0.5q0-0.1 0-0.1l-0.2-0.5q0-0.1 0-0.1l-0.1-0.5q0-0.1 0-0.1l-0.1-0.6q0 0 0 0v-0.6q-0.1 0-0.1 0v-0.6q0 0 0 0v-0.6-0.7-86.5-0.1q0 0 0 0v-0.6q0 0 0 0l0.1-0.6q0 0 0 0v-0.6q0 0 0-0.1l0.1-0.5q0 0 0-0.1l0.1-0.5q0.1 0 0.1-0.1l0.1-0.5q0-0.1 0-0.1l0.2-0.5q0 0 0-0.1l0.2-0.5q0 0 0-0.1l0.2-0.5q0 0 0.1 0l0.2-0.5q0-0.1 0-0.1l0.3-0.5q0 0 0 0l0.3-0.5q0 0 0-0.1l0.4-0.4q0-0.1 0-0.1l0.3-0.4q0-0.1 0.1-0.1l0.3-0.4q0 0 0.1-0.1l0.3-0.4q0 0 0.1 0l0.3-0.4q0.1 0 0.1 0v-0.1q0.1 0 0.1 0l0.4-0.4q0 0 0-0.1l0.4-0.3q0.1 0 0.1-0.1l0.4-0.3q0 0 0.1 0l0.4-0.4q0 0 0.1 0l0.4-0.3q0.1 0 0.1-0.1l0.5-0.2q0-0.1 0-0.1l0.5-0.2q0 0 0.1-0.1l0.5-0.2q0 0 0 0l0.5-0.2q0.1 0 0.1-0.1l0.5-0.1q0.1-0.1 0.1-0.1l0.5-0.1q0.1 0 0.1 0l0.5-0.2q0.1 0 0.1 0l0.5-0.1q0.1 0 0.1 0l0.6-0.1q0 0 0 0h0.6q0-0.1 0-0.1h0.6q0 0 0 0h0.6 1.3 85.9 0.1q0 0 0 0h0.6q0 0 0 0l0.6 0.1q0 0 0 0h0.6q0 0 0.1 0l0.5 0.1q0 0 0.1 0l0.5 0.1q0 0 0.1 0.1l0.5 0.1q0 0 0.1 0l0.5 0.2q0 0 0.1 0l0.5 0.2q0 0 0.1 0l0.5 0.2q0 0 0 0.1l0.5 0.2q0.1 0 0.1 0l0.5 0.3q0 0 0 0l0.5 0.3q0 0 0.1 0l0.4 0.4q0.1 0 0.1 0l0.4 0.3q0.1 0 0.1 0.1l0.4 0.3q0 0 0.1 0l0.4 0.4q0 0 0 0.1l0.4 0.3q0 0.1 0 0.1h0.1q0 0.1 0 0.1l0.4 0.4q0 0 0.1 0l0.3 0.4q0 0.1 0.1 0.1l0.3 0.4q0 0 0 0.1l0.4 0.4q0 0 0 0.1l0.3 0.4q0 0.1 0.1 0.1l0.2 0.5q0.1 0 0.1 0l0.2 0.5q0 0 0.1 0.1l0.2 0.5q0 0 0 0l0.2 0.5q0 0.1 0.1 0.1l0.1 0.5q0 0.1 0.1 0.1l0.1 0.5q0 0.1 0 0.1l0.2 0.5q0 0.1 0 0.1l0.1 0.5q0 0.1 0 0.1l0.1 0.6q0 0 0 0v0.6q0.1 0 0.1 0v0.6q0 0 0 0v0.6 1.9zm-2.7-85.4v-1.8-0.5-0.5l-0.1-0.5v-0.5l-0.1-0.5-0.2-0.4-0.1-0.5-0.2-0.5-0.1-0.4-0.3-0.5-0.2-0.4-0.2-0.4-0.3-0.5-0.3-0.4-0.3-0.3-0.3-0.4-0.4-0.4-0.4-0.4-0.4-0.3-0.4-0.4-0.4-0.2-0.4-0.3-0.4-0.3-0.4-0.2-0.5-0.2-0.4-0.2-0.5-0.2-0.5-0.1-0.5-0.2-0.4-0.1h-0.5l-0.5-0.1h-0.5-0.5-0.1-85.9-1.2-0.6-0.5l-0.5 0.1h-0.5l-0.5 0.1-0.4 0.1-0.5 0.2-0.5 0.1-0.4 0.2-0.5 0.2-0.4 0.3-0.4 0.2-0.4 0.3-0.4 0.3-0.4 0.3-0.4 0.3-0.4 0.4-0.4 0.4-0.3 0.4-0.3 0.4-0.3 0.4-0.3 0.4-0.3 0.4-0.2 0.4-0.2 0.5-0.2 0.4-0.2 0.5-0.1 0.5-0.1 0.4-0.1 0.5-0.1 0.5-0.1 0.5v0.5 0.5 0.1 86.4 0.7 0.6 0.5l0.1 0.5v0.5l0.1 0.4 0.2 0.5 0.1 0.5 0.2 0.5 0.1 0.4 0.3 0.5 0.2 0.4 0.2 0.4 0.3 0.4 0.3 0.4 0.3 0.4 0.3 0.4 0.4 0.4 0.4 0.4 0.4 0.3 0.4 0.3 0.4 0.3 0.4 0.3 0.4 0.3 0.4 0.2 0.5 0.2 0.4 0.2 0.5 0.2 0.5 0.1 0.5 0.1 0.4 0.1 0.5 0.1 0.5 0.1h0.5 0.5 0.1 87 0.1 0.6 0.5l0.5-0.1 0.5-0.1 0.5-0.1 0.4-0.1 0.5-0.1 0.5-0.2 0.4-0.2 0.5-0.2 0.4-0.2 0.4-0.3 0.4-0.2 0.4-0.3 0.4-0.3 0.4-0.4 0.4-0.3v-0.1l0.4-0.3 0.3-0.4 0.3-0.4 0.3-0.4 0.3-0.4 0.3-0.4 0.2-0.5 0.2-0.4 0.2-0.5 0.2-0.4 0.1-0.5 0.1-0.5 0.1-0.5 0.1-0.4 0.1-0.5v-0.5-0.6zm-98 92.4c-3.9 0-7.1-3.2-7.1-7.1v-87.2c0-3.9 3.2-7.1 7.1-7.1h87.2c3.9 0 7.1 3.2 7.1 7.1v87.2c0 3.9-3.2 7.1-7.1 7.1zm30.4-18.4l8.8-8.9-23.4-23.4 23.4-23.4-8.8-8.9-32.3 32.3zm41-32.3l-23.5 23.5 8.9 8.8 32.2-32.3-32.2-32.2-8.9 8.8z"/>
	</g>
</svg>