<svg version="1.2" xmlns="http://www.w3.org/2000/svg" viewBox="0 0 64 52" width="64" height="52"><style>.a{fill:#007aff}</style><path class="a" d="m36.4 25.4c-1.8-1-4-0.4-5 1.3l-0.2 0.5c-2.5 4.3-5.4 8.6-8.8 12-1.7 1.6-3.5 3-5.2 3.6-1.6 0.6-2.7 0.3-3.6-0.5-1-1-1.8-3-2-5.2-0.3-2.2-0.2-4.5 0.3-6.6 0.3-1.1 0.6-2.1 1-2.9 0.3-0.5 0.7-0.9 0.8-1q0.2 0 0.4 0.2c0.6 0.4 1.3 1.2 1.9 2.1 1.1 1.5 3 2.3 4.9 1.8 2.4-0.7 3.9-3.2 3.3-5.6l-0.5-1.6c-0.4-1.8-1.3-3.5-3.1-5.4-1-0.9-2.3-1.9-4.2-2.5-1.9-0.7-4.6-0.7-6.7 0.1-2.2 0.7-3.7 1.9-4.8 3-1.1 1.1-1.8 2.2-2.4 3.2-1.1 2.1-1.7 4-2.1 5.9-0.6 3.6-0.5 7.1 0.3 10.7 0.5 1.7 1.1 3.5 2 5.3 1 1.8 2.2 3.6 4.1 5.2 1.8 1.5 4.5 2.6 6.8 2.7 2.4 0.1 4.6-0.5 6.3-1.3 3.4-1.7 5.5-4 7.5-6.2 3.8-4.4 6.7-9 10.1-13.5q0.1-0.2 0.3-0.4c0.9-1.7 0.3-3.9-1.4-4.9z"/><path fill-rule="evenodd" class="a" d="m63.1 18.6q-0.1 0.2-0.2 0.3l-0.2 0.2c-3.4 3.5-8.1 6-12.7 7.1q-0.9 0.2-1.8 0.4c1.1 2.2 2.1 4.9 1.9 8.1 0 1.8-0.4 3.7-1.3 5.4-0.8 1.8-2 3.2-3.2 4.3-1.3 1.1-2.8 2.2-4.7 2.8-1.9 0.6-4 0.8-6 0.2-4.1-1-6.8-4.5-7.4-7.9-0.7-3.5 0.5-6.8 2-9.1 1.6-2.3 3.6-4 5.9-5.3q0.6-0.3 1.1-0.6c-1.1-1.6-2.5-3.1-3.8-4.6l-2.3-2.4c-0.9-0.9-1.7-2.1-2.4-3.4-0.6-1.4-1.1-3-1-4.8 0.1-1.8 0.8-3.5 1.9-4.9 1.1-1.3 2.5-2.2 4.1-2.8 1.5-0.6 3.2-0.8 5.1-0.4 1.8 0.4 3.5 1.7 4.5 3.2 1 1.6 1.4 3.2 1.5 4.7v0.4c0.2 1.8-1.1 3.4-2.9 3.5-1.8 0.2-3.4-1.2-3.6-3q0-0.2 0-0.5c0.1-0.7 0-1.3-0.2-1.6-0.3-0.3-0.4-0.5-0.8-0.5-0.8-0.2-2.2 0.4-2.5 1.3-0.3 0.8-0.1 1.2 0.6 2.1 0.4 0.4 0.9 0.9 1.5 1.4 0.7 0.5 1.7 1.4 2.5 2.2 2.4 2.2 4.7 4.7 6.8 7.6q1.6-0.4 3.1-0.8c3.9-1.1 7-3.3 9.3-6.4 1-1.5 3.1-1.8 4.5-0.7 1.5 1 1.8 3 0.7 4.5zm-23.8 10.1q-0.7 0.3-1.4 0.7c-1.6 0.9-3 2.3-4 3.7-0.8 1.5-1.1 3.2-0.4 4.4 0.6 1.3 1.8 1.9 2.8 2 1.1 0 2.1-0.4 3.2-1.5 1.1-1.1 1.5-2.1 1.6-3.5 0-1.4-0.5-3.1-1.3-4.8-0.1-0.3-0.4-0.6-0.5-1z"/></svg>