<svg width="200" height="212" viewBox="0 0 200 212" fill="none" xmlns="http://www.w3.org/2000/svg">
<path d="M114.999 203.599C68.9838 203.599 31.9972 166.612 31.9972 120.597C31.9972 74.8738 68.9838 37.5959 114.999 37.5959C160.722 37.5959 198 74.8738 198 120.597C198 166.612 160.722 203.599 114.999 203.599Z" fill="#007AFF"/>
<path d="M85.0015 173.893C39.2779 173.893 2 136.615 2 90.8918C2 44.8769 39.2779 7.89032 85.0015 7.89032C131.016 7.89032 168.003 44.8769 168.003 90.8918C168.003 136.615 131.016 173.893 85.0015 173.893Z" stroke="black" stroke-width="3" stroke-linecap="round" stroke-linejoin="round"/>
<path d="M85.0016 130.791C62.8679 130.791 45.1027 113.025 45.1027 90.8916C45.1027 68.7579 62.8679 50.7014 85.0016 50.7014C107.135 50.7014 125.192 68.7579 125.192 90.8916C125.192 113.025 107.135 130.791 85.0016 130.791Z" stroke="black" stroke-width="3" stroke-linecap="round" stroke-linejoin="round"/>
</svg>
