<svg width="200" height="212" viewBox="0 0 200 212" fill="none" xmlns="http://www.w3.org/2000/svg">
  <g clip-path="url(#clip0_49_475)">
    <path fill-rule="evenodd" clip-rule="evenodd"
      d="M133.48 207.101C100 207.101 72.28 177.955 72.28 141.906C72.28 106.24 100 76.7097 133.48 76.7097C167.32 76.7097 194.68 106.24 194.68 141.906C194.68 177.955 167.32 207.101 133.48 207.101ZM133.48 107.39C115.84 107.39 101.08 123.114 101.08 141.906C101.08 161.081 115.84 176.421 133.48 176.421C151.48 176.421 165.88 161.081 165.88 141.906C165.88 123.114 151.48 107.39 133.48 107.39Z"
      fill="black" />
    <path fill-rule="evenodd" clip-rule="evenodd"
      d="M66.8801 136.153C33.4001 136.153 5.68005 107.007 5.68005 70.9571C5.68005 35.2911 33.4001 5.76123 66.8801 5.76123C100.72 5.76123 128.08 35.2911 128.08 70.9571C128.08 107.007 100.72 136.153 66.8801 136.153ZM66.8801 36.4416C49.2401 36.4416 34.4801 52.1654 34.4801 70.9571C34.4801 90.1324 49.2401 105.473 66.8801 105.473C84.8801 105.473 99.2801 90.1324 99.2801 70.9571C99.2801 52.1654 84.8801 36.4416 66.8801 36.4416Z"
      stroke="#007AFF" stroke-width="2" stroke-miterlimit="10" />
  </g>
  <defs>
    <clipPath id="clip0_49_475">
      <rect width="200" height="210.928" fill="white" transform="translate(0 0.775635)" />
    </clipPath>
  </defs>
</svg>