<svg width="200" height="212" viewBox="0 0 200 212" fill="none" xmlns="http://www.w3.org/2000/svg">
<g clip-path="url(#clip0_49_556)">
<path fill-rule="evenodd" clip-rule="evenodd" d="M190.024 107.075L99.472 203.821C97.888 205.227 95.776 205.227 94.192 203.821L3.64003 107.075C2.05603 105.669 2.05603 103.138 3.64003 101.732L94.192 4.98628C95.776 3.58009 97.888 3.58009 99.472 4.98628L190.024 101.732C191.608 103.138 191.608 105.669 190.024 107.075Z" stroke="#007AFF" stroke-width="2.4" stroke-miterlimit="10"/>
<path fill-rule="evenodd" clip-rule="evenodd" d="M150.16 105.95L98.416 161.073C97.36 162.198 96.04 162.198 95.248 161.073L43.504 105.95C42.712 105.107 42.712 103.701 43.504 102.857L95.248 47.4531C96.04 46.6094 97.36 46.6094 98.416 47.4531L150.16 102.857C150.952 103.701 150.952 105.107 150.16 105.95Z" stroke="#007AFF" stroke-width="2.4" stroke-miterlimit="10"/>
</g>
<defs>
<clipPath id="clip0_49_556">
<rect width="200" height="210.928" fill="white" transform="translate(0 0.486572)"/>
</clipPath>
</defs>
</svg>
