<svg width="200" height="212" viewBox="0 0 200 212" fill="none" xmlns="http://www.w3.org/2000/svg">
<g clip-path="url(#clip0_49_566)">
<path d="M124.816 193.905C118.48 193.905 111.88 191.093 106.864 185.749C97.0959 175.344 97.0959 158.188 106.864 147.501C120.592 133.158 120.592 109.815 106.864 95.4724C93.3999 81.1293 71.4879 81.1293 58.0239 95.4724C47.9919 105.878 31.8879 105.878 22.1199 95.4724C12.0879 84.7854 12.0879 67.6299 22.1199 57.2241C55.3839 21.7882 109.504 21.7882 142.768 57.2241C176.032 92.66 176.032 150.314 142.768 185.749C137.752 191.093 131.416 193.905 124.816 193.905Z" fill="#007AFF"/>
<path fill-rule="evenodd" clip-rule="evenodd" d="M140.128 177.594C133.528 177.594 127.192 174.781 122.176 169.719C112.144 159.032 112.144 141.876 122.176 131.471C135.64 117.128 135.64 93.5037 122.176 79.1606C108.712 64.8175 86.536 64.8175 73.072 79.1606C63.304 89.8476 47.2 89.8476 37.168 79.1606C27.4 68.7548 27.4 51.5994 37.168 40.9124C70.696 5.47648 124.816 5.47648 158.08 40.9124C191.344 76.3482 191.344 134.283 158.08 169.719C153.064 174.781 146.728 177.594 140.128 177.594Z" stroke="black" stroke-width="2.6" stroke-miterlimit="10"/>
</g>
<defs>
<clipPath id="clip0_49_566">
<rect width="200" height="210.928" fill="white" transform="translate(0 0.414307)"/>
</clipPath>
</defs>
</svg>
