<svg width="200" height="211" viewBox="0 0 200 211" fill="none" xmlns="http://www.w3.org/2000/svg">
<g clip-path="url(#clip0_23_510)">
<path d="M53.6625 169.764L61.775 177.959" stroke="black" stroke-width="1.7" stroke-linecap="round" stroke-linejoin="round"/>
<path d="M25.6124 141.57L40.5999 156.709" stroke="black" stroke-width="1.7" stroke-linecap="round" stroke-linejoin="round"/>
<path d="M51.05 143.376L107.563 200.32" stroke="black" stroke-width="1.7" stroke-linecap="round" stroke-linejoin="round"/>
<path d="M22.3125 114.209L33.725 125.876" stroke="black" stroke-width="1.7" stroke-linecap="round" stroke-linejoin="round"/>
<path d="M91.6125 160.459L141.25 210.737" stroke="#007AFF" stroke-width="1.7" stroke-linecap="round" stroke-linejoin="round"/>
<path d="M16.675 84.7645L69.6125 138.237" stroke="#007AFF" stroke-width="1.7" stroke-linecap="round" stroke-linejoin="round"/>
<path d="M58.2 102.82L145.925 191.431" stroke="black" stroke-width="1.7" stroke-linecap="round" stroke-linejoin="round"/>
<path d="M21.9 66.2921L40.4625 85.0421" stroke="black" stroke-width="1.7" stroke-linecap="round" stroke-linejoin="round"/>
<path d="M130.662 152.126L151.7 173.515" stroke="black" stroke-width="1.7" stroke-linecap="round" stroke-linejoin="round"/>
<path d="M1 21.1533L108.387 129.764" stroke="black" stroke-width="1.7" stroke-linecap="round" stroke-linejoin="round"/>
<path d="M87.2125 84.4867L192.125 190.598" stroke="#007AFF" stroke-width="1.7" stroke-linecap="round" stroke-linejoin="round"/>
<path d="M40.7375 37.681L65.2125 62.2644" stroke="#007AFF" stroke-width="1.7" stroke-linecap="round" stroke-linejoin="round"/>
<path d="M107.562 81.1532L175.35 149.764" stroke="black" stroke-width="1.7" stroke-linecap="round" stroke-linejoin="round"/>
<path d="M38.2626 11.2922L88.4501 61.8478" stroke="black" stroke-width="1.7" stroke-linecap="round" stroke-linejoin="round"/>
<path d="M163.525 113.931L199 149.625" stroke="#007AFF" stroke-width="1.7" stroke-linecap="round" stroke-linejoin="round"/>
<path d="M68.9249 18.3755L137.812 87.9588" stroke="#007AFF" stroke-width="1.7" stroke-linecap="round" stroke-linejoin="round"/>
<path d="M129.15 55.4587L177 103.792" stroke="black" stroke-width="1.7" stroke-linecap="round" stroke-linejoin="round"/>
<path d="M74.5625 0.319946L110.45 36.4311" stroke="black" stroke-width="1.7" stroke-linecap="round" stroke-linejoin="round"/>
<path d="M171.775 74.4865L190.338 93.3753" stroke="#007AFF" stroke-width="1.7" stroke-linecap="round" stroke-linejoin="round"/>
<path d="M103.3 5.31995L150.463 53.0977" stroke="#007AFF" stroke-width="1.7" stroke-linecap="round" stroke-linejoin="round"/>
<path d="M162.012 40.8755L173.425 52.5422" stroke="black" stroke-width="1.7" stroke-linecap="round" stroke-linejoin="round"/>
<path d="M141.938 20.5977L149.913 28.6532" stroke="black" stroke-width="1.7" stroke-linecap="round" stroke-linejoin="round"/>
</g>
<defs>
<clipPath id="clip0_23_510">
<rect width="200" height="210.928" fill="white" transform="translate(0 0.0643311)"/>
</clipPath>
</defs>
</svg>
