<svg width="200" height="212" viewBox="0 0 200 212" fill="none" xmlns="http://www.w3.org/2000/svg">
<g clip-path="url(#clip0_49_499)">
<path d="M26.344 97.4469C23.968 100.4 20.008 100.611 17.236 98.0797C14.662 95.5486 14.464 91.1191 16.84 88.377C19.216 85.635 23.176 85.2131 25.948 87.7442C28.522 90.2754 28.72 94.7049 26.344 97.4469Z" fill="#007AFF"/>
<path d="M54.658 124.235C52.282 127.188 48.124 127.399 45.55 124.868C42.778 122.336 42.58 117.907 44.956 115.165C47.332 112.212 51.49 112.001 54.064 114.532C56.836 117.063 57.034 121.493 54.658 124.235Z" fill="black"/>
<path d="M111.088 177.811C108.712 180.553 104.554 180.974 101.98 178.443C99.406 175.912 99.01 171.483 101.386 168.53C103.762 165.788 107.92 165.577 110.494 168.108C113.266 170.639 113.464 174.858 111.088 177.811Z" fill="#007AFF"/>
<path d="M139.402 204.598C137.026 207.34 132.868 207.551 130.294 205.02C127.522 202.489 127.324 198.271 129.7 195.318C132.076 192.576 136.036 192.365 138.808 194.896C141.382 197.427 141.778 201.645 139.402 204.598Z" fill="black"/>
<path d="M77.428 97.0251C75.052 99.7672 70.894 99.9781 68.32 97.447C65.548 94.9159 65.35 90.6973 67.726 87.7443C70.102 85.0023 74.26 84.7913 76.834 87.3225C79.606 89.8536 79.804 94.0722 77.428 97.0251Z" fill="#007AFF"/>
<path d="M105.742 123.813C103.366 126.555 99.2079 126.766 96.6339 124.235C93.8619 121.704 93.6639 117.485 96.0399 114.532C98.4159 111.79 102.376 111.579 105.148 113.899C107.722 116.43 108.118 120.86 105.742 123.813Z" fill="#007AFF"/>
<path d="M133.858 150.39C131.482 153.343 127.522 153.554 124.75 151.023C122.176 148.491 121.78 144.062 124.156 141.32C126.532 138.578 130.69 138.156 133.264 140.687C136.036 143.218 136.234 147.648 133.858 150.39Z" fill="black"/>
<path d="M100.198 69.6044C97.8219 72.5574 93.862 72.7683 91.09 70.2372C88.516 67.7061 88.12 63.2766 90.496 60.5345C92.872 57.5815 97.03 57.3706 99.6039 59.9017C102.376 62.4329 102.574 66.8624 100.198 69.6044Z" fill="black"/>
<path d="M128.512 96.3923C126.136 99.3453 121.978 99.5562 119.404 97.025C116.632 94.4939 116.434 90.0644 118.81 87.3224C121.186 84.3694 125.344 84.1584 127.918 86.6896C130.69 89.2207 130.888 93.6502 128.512 96.3923Z" fill="#007AFF"/>
<path d="M156.628 123.18C154.252 125.922 150.292 126.344 147.52 123.813C144.946 121.282 144.748 116.852 147.124 114.11C149.5 111.157 153.46 110.946 156.232 113.477C158.806 116.009 159.004 120.227 156.628 123.18Z" fill="#007AFF"/>
<path d="M184.942 149.968C182.566 152.71 178.408 152.921 175.834 150.39C173.062 147.859 172.864 143.64 175.24 140.687C177.616 137.945 181.774 137.734 184.348 140.265C187.12 142.796 187.318 147.015 184.942 149.968Z" fill="#007AFF"/>
<path d="M94.8521 15.6069C92.4761 18.5598 88.318 18.7708 85.744 16.2396C82.972 13.7085 82.7741 9.27902 85.1501 6.53696C87.5261 3.58397 91.684 3.37304 94.258 5.90418C96.832 8.43531 97.2281 12.8648 94.8521 15.6069Z" fill="black"/>
<path d="M151.282 69.1826C148.906 71.9247 144.748 72.1356 142.174 69.6045C139.402 67.0733 139.204 62.8548 141.58 59.9018C143.956 57.1597 148.114 56.9488 150.688 59.4799C153.46 62.0111 153.658 66.2296 151.282 69.1826Z" fill="#007AFF"/>
<path d="M179.398 95.7597C177.022 98.7126 173.062 98.9236 170.29 96.3924C167.716 93.8613 167.518 89.6427 169.894 86.6898C172.27 83.9477 176.23 83.5258 179.002 86.057C181.576 88.5881 181.774 93.0176 179.398 95.7597Z" fill="black"/>
</g>
<defs>
<clipPath id="clip0_49_499">
<rect width="200" height="210.928" fill="white" transform="translate(0 0.631104)"/>
</clipPath>
</defs>
</svg>
