<svg width="200" height="212" viewBox="0 0 200 212" fill="none" xmlns="http://www.w3.org/2000/svg">
<g clip-path="url(#clip0_49_487)">
<path d="M101.32 198.624C100.99 195.109 103.3 191.945 106.6 191.593C109.9 191.241 112.87 193.702 113.2 197.218C113.53 200.382 111.22 203.546 107.92 204.249C107.7 204.249 107.48 204.249 107.26 204.249C104.29 204.249 101.65 201.788 101.32 198.624ZM63.6999 198.624C60.7299 197.218 59.0799 193.702 60.3999 190.187C61.3899 187.023 65.0199 185.265 67.9899 186.671C70.9599 187.726 72.6099 191.593 71.2899 194.757C70.6299 197.218 68.3199 198.976 65.6799 198.976C65.0199 198.976 64.3599 198.858 63.6999 198.624ZM141.58 185.617C139.6 182.804 140.26 178.937 142.9 176.828C145.87 174.719 149.5 175.422 151.15 178.234C153.13 181.398 152.47 185.265 149.83 187.374C148.73 188.078 147.63 188.429 146.53 188.429C144.55 188.429 142.57 187.374 141.58 185.617ZM27.0699 171.555C24.7599 168.743 25.0899 164.876 27.3999 162.415C30.0399 160.305 33.6699 160.305 35.9799 163.118C37.9599 165.579 37.9599 169.797 35.3199 171.906C34.3299 172.961 32.6799 173.664 31.3599 173.664C29.7099 173.664 28.0599 172.961 27.0699 171.555ZM171.28 154.329C168.31 152.571 167.32 148.704 168.97 145.54C170.29 142.728 173.92 141.322 176.89 143.08C179.86 144.486 180.85 148.353 179.53 151.517C178.21 153.626 176.23 155.032 174.25 155.032C173.15 155.032 172.16 154.798 171.28 154.329ZM6.27994 129.369C5.28994 125.854 7.26994 122.69 10.5699 121.635C13.5399 120.932 16.8399 123.041 17.8299 126.205C18.4899 129.721 16.5099 133.236 13.2099 133.939C12.7699 134.174 12.3299 134.291 11.8899 134.291C9.24994 134.291 6.93994 132.182 6.27994 129.369ZM178.21 105.464C178.21 105.464 178.21 105.347 178.21 105.113C178.21 101.597 180.85 98.7848 184.15 98.7848C187.45 98.7848 190.09 101.597 190.09 105.113C190.09 105.347 190.09 105.464 190.09 105.464C190.09 108.98 187.45 111.792 184.15 111.792C180.85 111.792 178.21 108.98 178.21 105.464ZM10.5699 89.6446C7.26994 88.59 5.28994 85.0745 5.94994 81.9106C6.93994 78.3951 9.90994 76.2858 13.2099 76.9889C16.5099 78.0436 18.4899 81.559 17.4999 84.7229C16.8399 87.8869 14.5299 89.6446 11.8899 89.6446C11.4499 89.6446 11.0099 89.6446 10.5699 89.6446ZM168.64 64.6848C167.32 61.8724 168.31 58.0054 171.28 56.2477C173.92 54.4899 177.55 55.8961 179.2 58.7085C180.85 61.8724 179.53 65.7394 176.89 67.4972C175.79 67.9659 174.8 68.2003 173.92 68.2003C171.94 68.2003 169.63 67.1456 168.64 64.6848ZM27.3999 48.5137C24.7599 46.4044 24.4299 42.1858 26.7399 39.725C29.0499 36.9126 32.6799 36.9126 34.9899 39.0219C37.6299 41.4827 37.9599 45.3497 35.6499 48.1621C34.3299 49.5683 33.0099 50.2714 31.0299 50.2714C29.7099 50.2714 28.3899 49.5683 27.3999 48.5137ZM142.9 33.7487C139.93 31.991 139.27 27.7724 141.25 24.9601C143.23 22.1477 146.86 21.4446 149.5 23.5539C152.14 25.3116 152.8 29.1786 151.15 32.3425C149.83 34.1003 148.18 34.8034 146.2 34.8034C144.88 35.0377 143.78 34.6862 142.9 33.7487ZM60.0699 20.7415C58.7499 17.5776 60.3999 13.7106 63.3699 12.6559C66.3399 11.2497 69.9699 13.0075 70.9599 16.1714C72.2799 19.3353 70.6299 23.2023 67.6599 24.257C66.9999 24.7257 66.3399 24.9601 65.6799 24.9601C63.0399 24.9601 60.7299 23.2023 60.0699 20.7415ZM106.27 19.3353C102.97 18.9838 100.66 15.8198 100.99 12.3044C101.32 8.78892 104.29 6.32809 107.59 6.67964C110.89 7.03119 113.2 10.1951 112.87 13.7106C112.54 16.8745 109.9 19.3353 106.93 19.3353C106.71 19.3353 106.49 19.3353 106.27 19.3353Z" fill="#007AFF"/>
<path d="M100.66 181.75C100.33 178.938 102.31 176.125 104.95 175.774C107.59 175.422 109.9 177.531 110.23 180.344C110.56 183.156 108.58 185.968 105.94 186.32C105.72 186.32 105.5 186.32 105.28 186.32C102.97 186.32 100.99 184.211 100.66 181.75ZM69.64 181.398C67.33 180.344 66.01 177.531 67 174.719C67.99 172.258 70.63 170.852 73.27 171.907C75.58 172.961 76.9 175.774 75.91 178.586C75.25 180.695 73.27 181.75 71.29 181.75C70.85 181.75 70.3 181.633 69.64 181.398ZM133.33 171.203C131.68 168.743 132.34 165.579 134.65 163.821C136.96 162.063 139.93 162.766 141.25 165.227C142.9 167.336 142.24 170.852 140.26 172.258C139.38 172.961 138.39 173.313 137.29 173.313C135.97 173.313 134.32 172.61 133.33 171.203ZM39.61 159.602C37.96 157.142 37.96 153.978 39.94 152.22C41.92 150.111 45.22 150.462 46.87 152.572C48.85 154.681 48.52 157.845 46.54 159.954C45.55 160.657 44.56 161.36 43.24 161.36C41.92 161.36 40.6 160.657 39.61 159.602ZM157.75 145.541C155.44 144.134 154.45 140.97 155.77 138.51C157.09 135.697 160.06 134.994 162.37 136.049C164.68 137.455 165.67 140.619 164.35 143.08C163.36 144.838 161.71 145.892 160.06 145.892C159.18 145.892 158.41 145.775 157.75 145.541ZM22.45 125.151C21.79 122.339 23.44 119.526 26.08 118.823C28.72 118.12 31.36 119.878 32.02 122.69C32.68 125.151 31.03 127.963 28.39 128.666C28.17 128.901 27.84 129.018 27.4 129.018C25.09 129.018 23.11 127.26 22.45 125.151ZM163.36 105.464C163.36 105.23 163.36 105.113 163.36 105.113C163.36 102.3 165.34 99.8396 168.31 99.8396C170.95 99.8396 172.93 102.3 172.93 105.113C172.93 105.347 172.93 105.464 172.93 105.464C172.93 108.277 170.95 110.738 168.31 110.738C165.67 110.738 163.36 108.277 163.36 105.464ZM26.08 92.4571C23.44 91.754 21.79 88.9416 22.45 86.1293C23.11 83.3169 25.75 81.5592 28.39 82.2623C31.03 82.9653 32.68 85.7777 32.02 88.5901C31.36 91.0509 29.38 92.4571 27.4 92.4571C26.96 92.4571 26.52 92.4571 26.08 92.4571ZM155.77 72.0674C154.45 69.6066 155.11 66.4427 157.75 65.0365C160.06 63.9818 163.03 64.6849 164.35 67.4973C165.34 69.9581 164.68 73.122 162.37 74.5282C161.49 74.7626 160.72 74.8798 160.06 74.8798C158.08 74.8798 156.43 73.8251 155.77 72.0674ZM39.94 59.0602C37.96 56.9509 37.63 53.787 39.61 51.6777C41.26 49.5684 44.23 49.2169 46.21 51.3262C48.52 53.0839 48.52 56.2478 46.87 58.3571C45.88 59.7633 44.56 60.1148 43.24 60.1148C41.92 60.1148 40.93 59.7633 39.94 59.0602ZM134.32 46.7561C132.01 45.3499 131.68 42.186 133 39.7251C134.65 37.2643 137.62 36.5612 139.93 38.319C142.24 40.0767 142.57 43.2406 141.25 45.7014C140.26 47.1076 138.61 47.8107 137.29 47.8107C136.19 47.8107 135.2 47.4592 134.32 46.7561ZM66.67 36.2097C65.68 33.3973 67 30.5849 69.31 29.5303C71.95 28.4757 74.92 29.8818 75.58 32.3427C76.57 35.155 75.58 37.9674 72.94 39.022C72.28 39.2564 71.73 39.3736 71.29 39.3736C69.31 39.3736 67.33 38.319 66.67 36.2097ZM104.62 34.8035C101.98 34.4519 100 31.9911 100.33 29.1787C100.66 26.3664 102.97 24.2571 105.61 24.6086C108.25 24.9602 110.23 27.421 109.9 30.2334C109.57 33.0458 107.59 34.8035 105.28 34.8035C105.06 35.0379 104.84 35.0379 104.62 34.8035Z" fill="#007AFF"/>
<path d="M100 167.336C99.67 164.875 100.99 162.766 103.3 162.415C105.61 162.063 107.59 163.821 107.59 166.282C107.92 168.391 106.27 170.5 104.29 170.852C104.07 170.852 103.85 170.852 103.63 170.852C101.65 170.852 100 169.446 100 167.336ZM74.92 166.985C72.94 166.282 71.95 163.821 72.61 161.712C73.27 159.602 75.58 158.548 77.56 159.251C79.54 159.954 80.86 162.415 79.87 164.524C79.21 166.282 77.89 167.336 76.24 167.336C75.8 167.336 75.36 167.219 74.92 166.985ZM126.4 158.548C125.08 156.79 125.74 153.978 127.39 152.571C129.04 151.517 131.68 151.868 133 153.626C133.99 155.735 133.66 158.196 132.01 159.602C131.35 160.071 130.58 160.305 129.7 160.305C128.38 160.305 127.06 159.602 126.4 158.548ZM50.5 149.056C49.18 147.298 49.18 144.837 50.83 143.431C52.48 141.673 54.79 142.025 56.44 143.431C57.76 145.189 57.76 148.001 56.11 149.407C55.23 150.111 54.35 150.462 53.47 150.462C52.48 150.462 51.16 150.111 50.5 149.056ZM146.2 137.806C144.22 136.752 143.56 134.291 144.55 132.182C145.54 130.072 147.85 129.369 149.83 130.424C151.81 131.479 152.47 133.939 151.48 136.049C150.82 137.455 149.5 138.158 148.18 138.158C147.52 138.158 146.86 138.041 146.2 137.806ZM36.64 121.284C35.98 119.174 37.3 116.714 39.61 116.362C41.59 115.659 43.9 117.065 44.23 119.174C44.89 121.635 43.57 123.745 41.59 124.448C41.15 124.448 40.82 124.448 40.6 124.448C38.62 124.448 36.97 123.393 36.64 121.284ZM150.82 105.464C150.82 105.23 150.82 105.113 150.82 105.113C150.82 103.003 152.47 100.894 154.78 100.894C156.76 100.894 158.74 103.003 158.74 105.113C158.74 105.113 158.74 105.23 158.74 105.464C158.74 107.573 156.76 109.683 154.78 109.683C152.47 109.683 150.82 107.573 150.82 105.464ZM39.61 94.9177C37.3 94.2146 35.98 92.1054 36.64 89.6445C36.97 87.5353 39.28 86.1291 41.26 86.8322C43.57 87.1837 44.89 89.6446 44.23 91.7538C43.9 93.8631 42.25 94.9177 40.6 94.9177C40.16 94.9177 39.83 94.9177 39.61 94.9177ZM144.55 78.3951C143.56 76.2858 144.22 73.825 146.2 72.7703C147.85 71.7157 150.49 72.4188 151.48 74.5281C152.47 76.6373 151.81 79.0982 149.83 80.1528C149.17 80.6215 148.51 80.8559 147.85 80.8559C146.53 80.8559 145.21 79.8013 144.55 78.3951ZM50.83 67.8487C49.18 66.0909 48.85 63.6301 50.17 61.8724C51.82 60.1147 54.13 59.7631 55.78 61.5208C57.43 62.927 57.76 65.7394 56.11 67.4971C55.45 68.2002 54.46 68.9033 53.14 68.9033C52.26 68.9033 51.49 68.5518 50.83 67.8487ZM127.39 58.0054C125.41 56.5992 125.08 54.1384 126.07 52.0291C127.39 50.2714 130.03 49.5683 131.68 50.9745C133.66 52.3806 133.99 54.8415 132.67 56.9507C132.01 58.0054 130.69 58.7085 129.37 58.7085C128.71 58.7085 128.05 58.4741 127.39 58.0054ZM72.28 49.2167C71.62 47.1074 72.61 44.6466 74.59 43.9435C76.57 42.8889 78.88 43.9435 79.87 46.4043C80.53 48.5136 79.54 50.9744 77.56 51.6775C77.12 51.9119 76.57 52.0291 75.91 52.0291C74.59 52.0291 72.94 50.9745 72.28 49.2167ZM102.97 48.1621C100.99 48.1621 99.34 46.0528 99.67 43.592C100 41.4827 101.98 39.725 103.96 40.0765C106.27 40.0765 107.59 42.1858 107.59 44.6466C107.26 46.7559 105.61 48.5136 103.63 48.5136C103.41 48.5136 103.19 48.3964 102.97 48.1621Z" fill="#007AFF"/>
</g>
<defs>
<clipPath id="clip0_49_487">
<rect width="200" height="210.928" fill="white" transform="translate(0 0.703369)"/>
</clipPath>
</defs>
</svg>
