<svg width="200" height="212" viewBox="0 0 200 212" fill="none" xmlns="http://www.w3.org/2000/svg">
<g clip-path="url(#clip0_25_645)">
<path fill-rule="evenodd" clip-rule="evenodd" d="M5.90099 0.920044H173.515C176.129 0.920044 178.416 3.21988 178.416 5.84826V174.393C178.416 177.022 176.129 179.322 173.515 179.322H5.90099C3.28713 179.322 1 177.022 1 174.393V5.84826C1 3.21988 3.28713 0.920044 5.90099 0.920044Z" stroke="#007AFF" stroke-width="2" stroke-miterlimit="10"/>
<path d="M193.445 209.219C193.445 207.577 194.752 206.262 196.386 206.262C197.693 206.262 199 207.577 199 209.219C199 210.534 197.693 211.848 196.386 211.848C194.752 211.848 193.445 210.534 193.445 209.219Z" fill="black"/>
<path d="M149.99 209.219C149.99 207.577 151.297 206.262 152.931 206.262C154.238 206.262 155.545 207.577 155.545 209.219C155.545 210.534 154.238 211.848 152.931 211.848C151.297 211.848 149.99 210.534 149.99 209.219Z" fill="black"/>
<path d="M106.534 209.219C106.534 207.577 107.841 206.262 109.475 206.262C110.782 206.262 112.089 207.577 112.089 209.219C112.089 210.534 110.782 211.848 109.475 211.848C107.841 211.848 106.534 210.534 106.534 209.219Z" fill="black"/>
<path d="M63.0791 209.219C63.0791 207.577 64.386 206.262 65.693 206.262C67.3266 206.262 68.6336 207.577 68.6336 209.219C68.6336 210.534 67.3266 211.848 65.693 211.848C64.386 211.848 63.0791 210.534 63.0791 209.219Z" fill="black"/>
<path d="M19.6237 209.219C19.6237 207.577 20.9306 206.262 22.2375 206.262C23.8712 206.262 25.1781 207.577 25.1781 209.219C25.1781 210.534 23.8712 211.848 22.2375 211.848C20.9306 211.848 19.6237 210.534 19.6237 209.219Z" fill="black"/>
<path d="M193.445 170.123C193.445 168.48 194.752 167.166 196.386 167.166C197.693 167.166 199 168.48 199 170.123C199 171.765 197.693 172.751 196.386 172.751C194.752 172.751 193.445 171.765 193.445 170.123Z" fill="black"/>
<path d="M149.99 170.123C149.99 168.48 151.297 167.166 152.931 167.166C154.238 167.166 155.545 168.48 155.545 170.123C155.545 171.765 154.238 172.751 152.931 172.751C151.297 172.751 149.99 171.765 149.99 170.123Z" fill="black"/>
<path d="M106.534 170.123C106.534 168.48 107.841 167.166 109.475 167.166C110.782 167.166 112.089 168.48 112.089 170.123C112.089 171.765 110.782 172.751 109.475 172.751C107.841 172.751 106.534 171.765 106.534 170.123Z" fill="black"/>
<path d="M63.0791 170.123C63.0791 168.48 64.386 167.166 65.693 167.166C67.3266 167.166 68.6336 168.48 68.6336 170.123C68.6336 171.765 67.3266 172.751 65.693 172.751C64.386 172.751 63.0791 171.765 63.0791 170.123Z" fill="black"/>
<path d="M19.6237 170.123C19.6237 168.48 20.9306 167.166 22.2375 167.166C23.8712 167.166 25.1781 168.48 25.1781 170.123C25.1781 171.765 23.8712 172.751 22.2375 172.751C20.9306 172.751 19.6237 171.765 19.6237 170.123Z" fill="black"/>
<path d="M193.445 131.026C193.445 129.383 194.752 128.069 196.386 128.069C197.693 128.069 199 129.383 199 131.026C199 132.669 197.693 133.654 196.386 133.654C194.752 133.654 193.445 132.669 193.445 131.026Z" fill="black"/>
<path d="M152.931 133.654C151.297 133.654 149.99 132.669 149.99 131.026C149.99 129.383 151.297 128.069 152.931 128.069C154.238 128.069 155.545 129.383 155.545 131.026C155.545 132.669 154.238 133.654 152.931 133.654Z" fill="black"/>
<path d="M109.475 133.654C107.841 133.654 106.534 132.669 106.534 131.026C106.534 129.383 107.841 128.069 109.475 128.069C110.782 128.069 112.089 129.383 112.089 131.026C112.089 132.669 110.782 133.654 109.475 133.654Z" fill="black"/>
<path d="M63.0791 131.026C63.0791 129.383 64.386 128.069 65.693 128.069C67.3266 128.069 68.6336 129.383 68.6336 131.026C68.6336 132.669 67.3266 133.654 65.693 133.654C64.386 133.654 63.0791 132.669 63.0791 131.026Z" fill="black"/>
<path d="M19.6237 131.026C19.6237 129.383 20.9306 128.069 22.2375 128.069C23.8712 128.069 25.1781 129.383 25.1781 131.026C25.1781 132.669 23.8712 133.654 22.2375 133.654C20.9306 133.654 19.6237 132.669 19.6237 131.026Z" fill="black"/>
<path d="M193.445 91.9284C193.445 90.2857 194.752 89.3 196.386 89.3C197.693 89.3 199 90.2857 199 91.9284C199 93.5712 197.693 94.5568 196.386 94.5568C194.752 94.5568 193.445 93.5712 193.445 91.9284Z" fill="black"/>
<path d="M152.931 94.5565C151.297 94.5565 149.99 93.5709 149.99 91.9281C149.99 90.2854 151.297 88.9712 152.931 88.9712C154.238 88.9712 155.545 90.2854 155.545 91.9281C155.545 93.5709 154.238 94.5565 152.931 94.5565Z" fill="black"/>
<path d="M109.475 94.5565C107.841 94.5565 106.534 93.5709 106.534 91.9281C106.534 90.2854 107.841 88.9712 109.475 88.9712C110.782 88.9712 112.089 90.2854 112.089 91.9281C112.089 93.5709 110.782 94.5565 109.475 94.5565Z" fill="black"/>
<path d="M63.0791 91.9284C63.0791 90.2857 64.386 89.3 65.693 89.3C67.3266 89.3 68.6336 90.2857 68.6336 91.9284C68.6336 93.5712 67.3266 94.5568 65.693 94.5568C64.386 94.5568 63.0791 93.5712 63.0791 91.9284Z" fill="black"/>
<path d="M19.6237 91.9284C19.6237 90.2857 20.9306 89.3 22.2375 89.3C23.8712 89.3 25.1781 90.2857 25.1781 91.9284C25.1781 93.5712 23.8712 94.5568 22.2375 94.5568C20.9306 94.5568 19.6237 93.5712 19.6237 91.9284Z" fill="black"/>
<path d="M193.445 52.8307C193.445 51.1879 194.752 50.2023 196.386 50.2023C197.693 50.2023 199 51.1879 199 52.8307C199 54.4734 197.693 55.7876 196.386 55.7876C194.752 55.7876 193.445 54.4734 193.445 52.8307Z" fill="black"/>
<path d="M152.931 55.7876C151.297 55.7876 149.99 54.4734 149.99 52.8307C149.99 51.1879 151.297 50.2023 152.931 50.2023C154.238 50.2023 155.545 51.1879 155.545 52.8307C155.545 54.4734 154.238 55.7876 152.931 55.7876Z" fill="black"/>
<path d="M109.475 55.7876C107.841 55.7876 106.534 54.4734 106.534 52.8307C106.534 51.1879 107.841 50.2023 109.475 50.2023C110.782 50.2023 112.089 51.1879 112.089 52.8307C112.089 54.4734 110.782 55.7876 109.475 55.7876Z" fill="black"/>
<path d="M63.0791 52.8307C63.0791 51.1879 64.386 50.2023 65.693 50.2023C67.3266 50.2023 68.6336 51.1879 68.6336 52.8307C68.6336 54.4734 67.3266 55.7876 65.693 55.7876C64.386 55.7876 63.0791 54.4734 63.0791 52.8307Z" fill="black"/>
<path d="M19.6237 52.8307C19.6237 51.1879 20.9306 50.2023 22.2375 50.2023C23.8712 50.2023 25.1781 51.1879 25.1781 52.8307C25.1781 54.4734 23.8712 55.7876 22.2375 55.7876C20.9306 55.7876 19.6237 54.4734 19.6237 52.8307Z" fill="black"/>
<path d="M193.445 13.7337C193.445 12.091 194.752 11.1053 196.386 11.1053C197.693 11.1053 199 12.091 199 13.7337C199 15.3765 197.693 16.6907 196.386 16.6907C194.752 16.6907 193.445 15.3765 193.445 13.7337Z" fill="black"/>
<path d="M149.99 13.7337C149.99 12.091 151.297 11.1053 152.931 11.1053C154.238 11.1053 155.545 12.091 155.545 13.7337C155.545 15.3765 154.238 16.6907 152.931 16.6907C151.297 16.6907 149.99 15.3765 149.99 13.7337Z" fill="black"/>
<path d="M106.534 13.7337C106.534 12.091 107.841 11.1053 109.475 11.1053C110.782 11.1053 112.089 12.091 112.089 13.7337C112.089 15.3765 110.782 16.6907 109.475 16.6907C107.841 16.6907 106.534 15.3765 106.534 13.7337Z" fill="black"/>
<path d="M63.0791 13.7337C63.0791 12.091 64.386 11.1053 65.693 11.1053C67.3266 11.1053 68.6336 12.091 68.6336 13.7337C68.6336 15.3765 67.3266 16.6907 65.693 16.6907C64.386 16.6907 63.0791 15.3765 63.0791 13.7337Z" fill="black"/>
<path d="M19.6237 13.7337C19.6237 12.091 20.9306 11.1053 22.2375 11.1053C23.8712 11.1053 25.1781 12.091 25.1781 13.7337C25.1781 15.3765 23.8712 16.6907 22.2375 16.6907C20.9306 16.6907 19.6237 15.3765 19.6237 13.7337Z" fill="black"/>
</g>
<defs>
<clipPath id="clip0_25_645">
<rect width="200" height="210.928" fill="white" transform="translate(0 0.920044)"/>
</clipPath>
</defs>
</svg>
